<svg viewBox="0 0 200 187" xmlns="http://www.w3.org/2000/svg" xmlns:xlink="http://www.w3.org/1999/xlink">
    <mask id="mask0" mask-type="alpha">
        <path d="M190.312 36.4879C206.582 62.1187 201.309 102.826 182.328 134.186C163.346 165.547 
        130.807 187.559 100.226 186.353C69.6454 185.297 41.0228 161.023 21.7403 129.362C2.45775 
        97.8511 -7.48481 59.1033 6.67581 34.5279C20.9871 10.1032 59.7028 -0.149132 97.9666 
        0.00163737C136.23 0.303176 174.193 10.857 190.312 36.4879Z"/>
    </mask>
    <g mask="url(#mask0)">
        <path d="M190.312 36.4879C206.582 62.1187 201.309 102.826 182.328 134.186C163.346 
        165.547 130.807 187.559 100.226 186.353C69.6454 185.297 41.0228 161.023 21.7403 
        129.362C2.45775 97.8511 -7.48481 59.1033 6.67581 34.5279C20.9871 10.1032 59.7028 
        -0.149132 97.9666 0.00163737C136.23 0.303176 174.193 10.857 190.312 36.4879Z"/>
        <image href=""/>
    </g>
</svg>



<svg class="home_blob" viewBox="-70 -80 200 187" xmlns="http://www.w3.org/2000/svg" xmlns:xlink="http://www.w3.org/1999/xlink" >
    <mask id="mask0" mask-type="alpha">
        <path d="M51.6,-44.7C63.1,-26.8,66,-5.5,60.5,11.9C55,29.4,41.1,43,26.5,46.9C11.9,50.8,-3.5,45,-22,38.7C-40.5,32.5,-62.2,25.8,-65.6,14.1C-69,2.3,-54.2,-14.5,-40.2,-33C-26.2,-51.5,-13.1,-71.7,3.5,-74.5C20.1,-77.3,40.2,-62.7,51.6,-44.7Z"/>
    </mask>
    <g mask="url(#mask0)">
        <path d="M51.6,-44.7C63.1,-26.8,66,-5.5,60.5,11.9C55,29.4,41.1,43,26.5,46.9C11.9,50.8,-3.5,45,-22,38.7C-40.5,32.5,-62.2,25.8,-65.6,14.1C-69,2.3,-54.2,-14.5,-40.2,-33C-26.2,-51.5,-13.1,-71.7,3.5,-74.5C20.1,-77.3,40.2,-62.7,51.6,-44.7Z"/>
                                    
        <image class="home_blob-img" x="" y="18" xlink:href="assets/img/perfil.png"/>
    </g>
</svg>